<svg width="515" height="172" viewBox="0 0 515 172" fill="none" xmlns="http://www.w3.org/2000/svg">
<path d="M23.0292 -1.17942e-06L20.6525 1.7674L20.8164 1.59907L6.06463 12.7084L-1.07245e-05 27.9417L2.37668 26.1743L2.21276 26.4268L15.8991 15.6541L23.0292 -1.17942e-06Z" transform="translate(272.263 77.9807) scale(0.835346)" fill="white"/>
<path d="M39.2561 19.6938L17.5382 -2.42006e-06L-7.20301e-07 13.55L21.39 33.328L39.2561 19.6938Z" transform="translate(259.392 57.5222) scale(0.835346)" fill="white"/>
<path d="M17.2924 2.8615H17.3743L17.5382 2.10405V2.27237L18.4397 3.95741e-06L5.24508 10.3519V10.5202L4.91725 10.6885L4.0977 12.7926L4.01577 12.8767L3.76992 13.6342H3.68793L-1.07245e-05 22.5553L3.19623 20.1147C3.44209 19.8622 3.68793 19.6097 4.0977 19.4414C6.47438 17.3373 9.01499 15.4016 11.5556 13.3817H11.6375L13.0307 12.1193L17.2924 2.8615Z" transform="translate(267.47 96.6815) scale(0.835346)" fill="white"/>
<path d="M0.0824432 -1.1828e-06H1.94033e-05V0.0844076L0.0824432 -1.1828e-06Z" transform="translate(281.916 99.0719) scale(0.835346)" fill="white"/>
<path d="M17.2923 15.4016L23.5209 3.95741e-06L5.73681 13.55L9.28388e-06 28.6991L17.2923 15.4016Z" transform="translate(254.052 91.7603) scale(0.835346)" fill="white"/>
<path d="M6.39242 9.59444V9.76276L4.91726 10.8569L4.09771 12.9609L3.93379 13.0451L3.68794 13.8025L-7.20301e-07 22.6395L3.19624 20.283C3.4421 20.0305 3.68794 19.778 4.09771 19.6097C6.55634 17.5056 9.01497 15.4858 11.4736 13.55H11.6375L13.0308 12.2876L17.2104 3.02982V3.11399L17.5382 2.27237L17.3743 2.35652L18.4397 3.95741e-06L6.39242 9.59444Z" transform="translate(261.446 110.039) scale(0.835346)" fill="white"/>
<path d="M20.5705 30.9715L39.0103 18.4314L18.7675 1.43256e-06L-2.07287e-05 12.1193L20.5705 30.9715Z" transform="translate(220.096 22.8622) scale(0.835346)" fill="white"/>
<path d="M18.5217 2.71676e-06L-2.07287e-05 12.5401L20.8983 31.6448L38.6005 18.0948L18.5217 2.71676e-06Z" transform="translate(239.607 40.368) scale(0.835346)" fill="white"/>
<path d="M41.7967 18.9364L21.0623 -2.42006e-06L-7.20301e-07 13.4659L20.8983 33.0756L41.7967 18.9364Z" transform="translate(199.832 34.6733) scale(0.835346)" fill="white"/>
<path d="M24.6682 31.3082L18.6036 9.67859L9.28388e-06 -6.31624e-06L5.57289 20.1147L24.6682 31.3082Z" transform="translate(195.177 120.444) scale(0.835346)" fill="white"/>
<path d="M21.1442 29.6249L14.8337 7.23791L1.92881e-05 -1.17941e-06L6.22852 21.8821L21.1442 29.6249Z" transform="translate(172.722 89.5807) scale(0.835346)" fill="white"/>
<path d="M18.4397 9.59444L-1.07245e-05 -6.31624e-06L6.31048 22.8078L24.8321 32.4023L18.4397 9.59444Z" transform="translate(188.741 97.244) scale(0.835346)" fill="white"/>
<path d="M14.4239 7.49039L9.28388e-06 3.95741e-06L5.32704 18.8522L19.751 27.2684L14.4239 7.49039Z" transform="translate(179.431 112.148) scale(0.835346)" fill="white"/>
<path d="M9.28388e-06 14.2233L17.948 22.1345L18.6856 21.3771L37.0434 7.06958L19.5871 2.71676e-06L9.28388e-06 14.2233Z" transform="translate(182.854 57.944) scale(0.835346)" fill="white"/>
<path d="M14.9157 10.4361L19.0953 1.389e-06L2.04887 13.2134L9.28388e-06 18.6839L0.0819435 19.4414L0.245862 19.273L0.737568 21.6296L14.9157 10.4361Z" transform="translate(250.287 110.18) scale(0.835346)" fill="white"/>
<path d="M27.9464 9.08947L29.0937 6.73294V6.56462L31.9621 -3.74783e-06L21.6359 8.24785L20.8983 4.88138L20.4066 2.52485L20.2427 2.69317L-2.07287e-05 17.0848L6.06462 41.0709L25.3239 25.501L22.6194 13.2976L27.9464 9.08947Z" transform="translate(233.446 124.171) scale(0.835346)" fill="white"/>
<path d="M9.28388e-06 -2.46362e-06L6.72027 22.892L21.7998 30.719L15.4074 7.40623C14.1781 6.73294 12.9488 6.1438 11.6375 5.47051C7.78567 3.53479 3.93381 1.68323 9.28388e-06 -2.46362e-06Z" transform="translate(165.739 65.7477) scale(0.835346)" fill="white"/>
<path d="M17.866 8.16369L-7.20301e-07 1.389e-06V0.0841619L6.72026 24.1544L24.7502 32.9072L17.866 8.16369Z" transform="translate(182.032 72.9188) scale(0.835346)" fill="white"/>
<path d="M15.5713 20.1147L35.1584 5.97548L20.6525 2.71676e-06L-1.07245e-05 13.1292L15.5713 20.1147Z" transform="translate(166.492 51.6166) scale(0.835346)" fill="white"/>
<path d="M1.92881e-05 14.1392L3.60598 17.5898L21.472 24.8277L21.2261 24.9119L23.8487 26.0901L24.2585 27.605V27.5209L25.2419 32.0656L42.0426 19.273L20.8164 -2.42006e-06L1.92881e-05 14.1392Z" transform="translate(219.617 52.6008) scale(0.835346)" fill="white"/>
<path d="M25.8975 2.69318L19.3412 -2.46362e-06L9.28388e-06 15.2333L22.1277 24.9119L43.5177 10.0152L43.7636 9.93109L25.8975 2.69318Z" transform="translate(200.996 65.0446) scale(0.835346)" fill="white"/>
<path d="M23.1111 11.5302L22.8653 10.2677L21.8818 5.723V5.80716L-1.07245e-05 21.2088L6.31048 47.7197L27.5367 32.6548L24.3404 17.4215L43.2718 35.1796L63.6785 19.5255L42.2065 1.389e-06L23.6848 14.2233L23.1111 11.5302Z" transform="translate(221.602 70.8096) scale(0.835346)" fill="white"/>
<path d="M21.8818 10.2677L9.28388e-06 1.389e-06L7.21198 25.3327L27.9464 35.2638L21.8818 10.2677Z" transform="translate(200.311 81.0037) scale(0.835346)" fill="white"/>
<path d="M26.7991 25.6693L21.3081 -1.17941e-06L-7.20301e-07 14.8966L6.2285 40.3135L26.7991 25.6693Z" transform="translate(227.558 101.533) scale(0.835346)" fill="white"/>
<path d="M20.4066 10.6044L-1.07245e-05 1.389e-06L6.88417 24.0702L26.1434 34.1697L20.4066 10.6044Z" transform="translate(207.568 106.313) scale(0.835346)" fill="white"/>
<path d="M19.3412 11.1093L1.92881e-05 -3.74783e-06L5.98267 21.7979L24.6682 32.9072L19.3412 11.1093Z" transform="translate(214.482 130.498) scale(0.835346)" fill="white"/>
<mask id="mask0" mask-type="alpha" maskUnits="userSpaceOnUse" x="0" y="0" width="515" height="172">
<rect width="515" height="171.916" transform="translate(0 0.0418701)" fill="#C4C4C4"/>
</mask>
<g mask="url(#mask0)">
<path d="M37.6961 37.3429L5.58779 62.7186L5.41587 62.5579L1.02466 65.8366L14.9005 30.8412L49.6674 4.55221L49.7244 4.61703L53.9844 1.43618L37.6961 37.3429Z" transform="translate(332.64 60.6271) scale(0.835346)" fill="#56CCF2" fill-opacity="0.18" stroke="#56CCF2" stroke-width="0.91855"/>
<path d="M0.708834 32.6072L41.9693 0.599597L93.278 47.3158L51.244 79.5239L0.708834 32.6072Z" transform="translate(347.76 -17.2633) scale(0.835346)" fill="#56CCF2" fill-opacity="0.18" stroke="#56CCF2" stroke-width="0.91855"/>
<path d="M41.544 4.96159L41.2296 6.42007H41.1096L40.9868 6.68794L30.822 28.8595L27.6868 31.7118H27.6683H27.5075L27.3818 31.8122C26.0437 32.8803 24.7043 33.9397 23.3681 34.9965C18.6602 38.7202 13.9924 42.4121 9.56315 46.3454C8.54257 46.7839 7.91505 47.4279 7.34675 48.0139L1.07398 52.8233L9.13787 33.2374H9.36079L9.46359 32.9194L10.0194 31.2001L10.1411 31.0745L10.2059 31.0077L10.2396 30.9209L12.1389 26.0249L12.7691 25.7L13.0179 25.5717V25.2918V25.1099L43.099 1.41366L41.691 4.97725L41.544 4.96159Z" transform="translate(394.665 105.586) scale(0.835346)" fill="#56CCF2" fill-opacity="0.18" stroke="#56CCF2" stroke-width="0.91855"/>
<mask id="path-31-inside-1" fill="white">
<path d="M0.198025 -2.85284e-06H4.66059e-05V0.203585L0.198025 -2.85284e-06Z"/>
</mask>
<path d="M0.198025 -2.85284e-06H4.66059e-05V0.203585L0.198025 -2.85284e-06Z" transform="translate(355.752 111.333) scale(0.835346)" fill="#56CCF2" fill-opacity="0.18"/>
<path d="M0.198025 -2.85284e-06L0.856547 0.640374L2.37252 -0.918553H0.198025V-2.85284e-06ZM4.66059e-05 -2.85284e-06V-0.918553H-0.918503V-2.85284e-06H4.66059e-05ZM4.66059e-05 0.203585H-0.918503V2.46572L0.658568 0.843962L4.66059e-05 0.203585ZM0.198025 -0.918553H4.66059e-05V0.918547H0.198025V-0.918553ZM-0.918503 -2.85284e-06V0.203585H0.918596V-2.85284e-06H-0.918503ZM0.658568 0.843962L0.856547 0.640374L-0.460497 -0.64038L-0.658475 -0.436792L0.658568 0.843962Z" transform="translate(355.752 111.333) scale(0.835346)" fill="#56CCF2" mask="url(#path-31-inside-1)"/>
<path d="M1.00129 67.6426L14.1194 32.8607L55.2654 1.38327L41.0248 36.7398L1.00129 67.6426Z" transform="translate(289.038 93.7548) scale(0.835346)" fill="#56CCF2" fill-opacity="0.18" stroke="#56CCF2" stroke-width="0.91855"/>
<path d="M42.9506 1.5483L41.1817 5.47677L40.6416 6.67634L41.1266 6.4263L40.861 7.11108L40.7891 7.09567L30.8207 29.2653L27.6868 32.1165H27.472H27.3124L27.1872 32.2155C21.3135 36.8588 15.44 41.7031 9.56682 46.7485C8.54569 47.1864 7.91772 47.8298 7.34945 48.4157L1.06148 53.0706L9.25438 33.359L9.26155 33.3418L9.26729 33.324L9.79771 31.6832L10.0219 31.5677L10.1766 31.4879L10.2396 31.3255L12.1541 26.3905L15.5801 23.8391L15.7651 23.7014V23.4707V23.2869L42.9506 1.5483Z" transform="translate(306.741 137.7) scale(0.835346)" fill="#56CCF2" fill-opacity="0.18" stroke="#56CCF2" stroke-width="0.91855"/>
<path d="M91.7074 43.4731L50.0644 75.4782L0.737743 30.2016L44.3073 0.582827L91.7074 43.4731Z" transform="translate(254.451 -29.798) scale(0.835346)" fill="#56CCF2" fill-opacity="0.18" stroke="#56CCF2" stroke-width="0.91855"/>
<path d="M0.742865 32.4423L50.3811 0.577619L99.3383 45.4714L50.085 78.9303L0.742865 32.4423Z" transform="translate(159.214 -43.4885) scale(0.835346)" fill="#56CCF2" fill-opacity="0.18" stroke="#56CCF2" stroke-width="0.91855"/>
<path d="M0.723757 0.896204L44.155 23.5834L58.316 74.2947L13.7368 48.0564L0.723757 0.896204Z" transform="translate(148.068 162.714) scale(0.835346)" fill="#56CCF2" fill-opacity="0.18" stroke="#56CCF2" stroke-width="0.91855"/>
<path d="M0.722781 0.865513L35.1307 17.7228L49.8979 70.3236L15.3012 52.2911L0.722781 0.865513Z" transform="translate(57.5532 88.515) scale(0.835346)" fill="#56CCF2" fill-opacity="0.18" stroke="#56CCF2" stroke-width="0.91855"/>
<path d="M58.7303 77.0029L15.4992 54.5175L0.723283 0.896039L43.7625 23.3811L58.7303 77.0029Z" transform="translate(132.66 106.938) scale(0.835346)" fill="#56CCF2" fill-opacity="0.18" stroke="#56CCF2" stroke-width="0.91855"/>
<path d="M46.5574 64.5942L13.1468 45.0202L0.730021 0.898601L34.1449 18.3217L46.5574 64.5942Z" transform="translate(110.367 142.77) scale(0.835346)" fill="#56CCF2" fill-opacity="0.18" stroke="#56CCF2" stroke-width="0.91855"/>
<path d="M22.46 26.1909L22.4354 26.2105L22.4137 26.2333L21.7401 26.9391L0.903045 17.568L23.908 0.523672L44.1959 8.90682L22.46 26.1909Z" transform="translate(413.358 66.2566) scale(0.835346)" fill="#56CCF2" fill-opacity="0.18" stroke="#56CCF2" stroke-width="0.91855"/>
<path d="M2.06418 51.1774L1.03835 46.241L0.862101 45.3929L0.547992 45.7168L0.468286 44.9769L5.29055 32.0489L44.6675 1.40209L35.3324 24.8055L2.06418 51.1774Z" transform="translate(280.022 138.038) scale(0.835346)" fill="#56CCF2" fill-opacity="0.18" stroke="#56CCF2" stroke-width="0.91855"/>
<path d="M48.577 6.96141L49.5885 11.8288L49.5895 11.8333L51.3556 19.9267L51.5136 20.6506L52.0917 20.187L75.3661 1.52139L69.2399 15.5988L69.2018 15.6865V15.7821V16.0812L66.5464 21.5574L53.8737 31.6089L53.6487 31.7874L53.7106 32.0678L60.125 61.1293L14.7905 97.9287L0.521845 41.2655L48.577 6.96141Z" transform="translate(239.698 171.673) scale(0.835346)" fill="#56CCF2" fill-opacity="0.18" stroke="#56CCF2" stroke-width="0.91855"/>
<path d="M16.4766 54.7181L0.714879 0.808472C9.81063 4.74606 18.7309 9.0575 27.6557 13.5608C28.7246 14.1119 29.7669 14.6376 30.7921 15.1547C32.734 16.1343 34.6147 17.083 36.4992 18.1143L51.4767 72.9588L16.4766 54.7181Z" transform="translate(7.58301 31.2177) scale(0.835346)" fill="#56CCF2" fill-opacity="0.18" stroke="#56CCF2" stroke-width="0.91855"/>
<path d="M58.5463 78.2533L16.4779 57.7476L0.64297 0.800304L42.3922 19.9548L58.5463 78.2533Z" transform="translate(116.595 48.4577) scale(0.835346)" fill="#56CCF2" fill-opacity="0.18" stroke="#56CCF2" stroke-width="0.91855"/>
<path d="M49.4951 0.515825L83.2472 14.4761L37.2294 47.8298L0.96311 31.4942L49.4951 0.515825Z" transform="translate(70.1982 -12.3235) scale(0.835346)" fill="#56CCF2" fill-opacity="0.18" stroke="#56CCF2" stroke-width="0.91855"/>
<path d="M99.9496 46.3035L60.7348 76.2845L58.5326 66.0664L58.4802 66.072L57.546 62.6041L57.4894 62.3942L57.2913 62.3049L52.0681 59.9486L52.7196 59.7247L51.5849 59.2631L8.8887 41.8956L0.726136 34.0528L49.8009 0.583973L99.9496 46.3035Z" transform="translate(206.587 -0.388794) scale(0.835346)" fill="#56CCF2" fill-opacity="0.18" stroke="#56CCF2" stroke-width="0.91855"/>
<path d="M61.8331 6.89928L61.8351 6.90012L103.642 23.9058L52.9301 59.3666L0.883888 36.509L46.3836 0.527214L61.8331 6.89928Z" transform="translate(162.001 29.5273) scale(0.835346)" fill="#56CCF2" fill-opacity="0.18" stroke="#56CCF2" stroke-width="0.91855"/>
<path d="M38.9203 49.5651L10.6036 35.8829L0.716312 0.847207L30.6063 14.9962L38.9203 49.5651Z" transform="translate(466.645 120.798) scale(0.835346)" fill="#56CCF2" fill-opacity="0.18" stroke="#56CCF2" stroke-width="0.91855"/>
<path d="M15.1985 96.1496L0.520527 36.0089L50.7149 0.774874L63.6548 61.5133L15.1985 96.1496Z" transform="translate(225.601 117.248) scale(0.835346)" fill="#56CCF2" fill-opacity="0.18" stroke="#56CCF2" stroke-width="0.91855"/>
<path d="M61.9109 81.2673L16.8711 57.5527L0.734199 0.901131L48.4637 25.8048L61.9109 81.2673Z" transform="translate(177.737 128.742) scale(0.835346)" fill="#56CCF2" fill-opacity="0.18" stroke="#56CCF2" stroke-width="0.91855"/>
</g>
</svg>
